<?xml version="1.0" encoding="UTF-8" standalone="no"?>
<!DOCTYPE svg PUBLIC "-//W3C//DTD SVG 1.1//EN" "http://www.w3.org/Graphics/SVG/1.1/DTD/svg11.dtd">
<svg xmlns="http://www.w3.org/2000/svg" xmlns:xlink="http://www.w3.org/1999/xlink" version="1.1"
	width="100" height="100" viewBox="200 200 100 100" xml:space="preserve">
<desc>Created with Fabric.js 3.6.3</desc>
<defs>
</defs>
<g transform="matrix(1 0 0 1 250 250)"  >
<rect style="stroke: none; stroke-width: 0; stroke-dasharray: none; stroke-linecap: butt; stroke-dashoffset: 0; stroke-linejoin: miter; stroke-miterlimit: 4; fill: rgb(255,255,255); fill-rule: evenodd; opacity: 1;"  x="-50" y="-50" rx="22" ry="22" width="100" height="100" />
</g>
<g transform="matrix(1.3942039018624515 -3.4148e-16 3.4148e-16 1.3942039018624515 250.00000000000006 250)"  >
<g style=""   >
		<g transform="matrix(1 0 0 1 1.2847359968694292 -5.8675)"  >
<path style="stroke: none; stroke-width: 1; stroke-dasharray: none; stroke-linecap: butt; stroke-dashoffset: 0; stroke-linejoin: miter; stroke-miterlimit: 4; fill: rgb(78,70,218); fill-rule: nonzero; opacity: 1;"  transform=" translate(-32.78473599686943, -25.6325)" d="M 38.902 15.585 c -1.664 0 -3.012 1.349 -3.012 3.012 c 0 1.663 1.348 3.012 3.012 3.012 c 1.662 0 3.012 -1.349 3.012 -3.012 C 41.914 16.934 40.564 15.585 38.902 15.585 z M 27.021 15.585 c -1.665 0 -3.012 1.349 -3.012 3.012 c 0 1.663 1.348 3.012 3.012 3.012 c 1.663 0 3.012 -1.349 3.012 -3.012 C 30.033 16.934 28.684 15.585 27.021 15.585 z M 21.081 42.271 c 0 1.664 1.349 3.012 3.012 3.012 H 41.83 c 1.662 0 3.012 -1.348 3.012 -3.012 v -9.184 H 21.081 V 42.271 z M 14.632 14.788 c -0.587 -0.591 -0.88 -1.363 -0.88 -2.131 c 0 -0.771 0.293 -1.544 0.88 -2.131 c 0.591 -0.587 1.36 -0.88 2.131 -0.88 c 0.772 0 1.544 0.293 2.131 0.88 l -0.704 0.52 c 4.077 -3.17 9.202 -5.064 14.77 -5.064 c 5.568 0 10.688 1.893 14.77 5.064 l -0.701 -0.518 c 0.588 -0.588 1.357 -0.881 2.131 -0.881 c 0.77 0 1.543 0.293 2.129 0.881 c 0.586 0.591 0.879 1.363 0.879 2.131 c 0 0.772 -0.291 1.544 -0.879 2.131 l 0.703 0.518 c 10.184 10.184 -7.15 14.77 -7.15 14.77 H 21.081 c -0.5 0 -18.045 -3.875 -7.15 -14.77 L 14.632 14.788 z" stroke-linecap="round" />
</g>
		<g transform="matrix(1 0 0 1 -18.247 3.8500000000000014)"  >
<path style="stroke: none; stroke-width: 1; stroke-dasharray: none; stroke-linecap: butt; stroke-dashoffset: 0; stroke-linejoin: miter; stroke-miterlimit: 4; fill: rgb(78,70,218); fill-rule: nonzero; opacity: 1;"  transform=" translate(-13.253000000000002, -35.35)" d="M 16.917 35.35 c 0 2.023 -1.64 3.664 -3.664 3.664 l 0 0 c -2.024 0 -3.664 -1.641 -3.664 -3.664 l 0 0 c 0 -2.023 1.64 -3.664 3.664 -3.664 l 0 0 C 15.276 31.686 16.917 33.326 16.917 35.35 L 16.917 35.35 z" stroke-linecap="round" />
</g>
		<g transform="matrix(1 0 0 1 20.836 5.300499999999996)"  >
<path style="stroke: none; stroke-width: 1; stroke-dasharray: none; stroke-linecap: butt; stroke-dashoffset: 0; stroke-linejoin: miter; stroke-miterlimit: 4; fill: rgb(78,70,218); fill-rule: nonzero; opacity: 1;"  transform=" translate(-52.336, -36.8005)" d="M 56 36.8 c 0 2.022 -1.641 3.665 -3.664 3.665 l 0 0 c -2.023 0 -3.664 -1.643 -3.664 -3.665 l 0 0 c 0 -2.022 1.641 -3.664 3.664 -3.664 l 0 0 C 54.359 33.136 56 34.777 56 36.8 L 56 36.8 z" stroke-linecap="round" />
</g>
		<g transform="matrix(1 0 0 1 8.012 24.001999999999995)"  >
<path style="stroke: none; stroke-width: 1; stroke-dasharray: none; stroke-linecap: butt; stroke-dashoffset: 0; stroke-linejoin: miter; stroke-miterlimit: 4; fill: rgb(78,70,218); fill-rule: nonzero; opacity: 1;"  transform=" translate(-39.512, -55.501999999999995)" d="M 39.512 59.166 c -2.023 0 -3.664 -1.641 -3.664 -3.664 l 0 0 c 0 -2.023 1.641 -3.664 3.664 -3.664 l 0 0 c 2.023 0 3.664 1.641 3.664 3.664 l 0 0 C 43.176 57.525 41.535 59.166 39.512 59.166 L 39.512 59.166 z" stroke-linecap="round" />
</g>
		<g transform="matrix(1 0 0 1 -5.422999999999998 24.001999999999995)"  >
<path style="stroke: none; stroke-width: 1; stroke-dasharray: none; stroke-linecap: butt; stroke-dashoffset: 0; stroke-linejoin: miter; stroke-miterlimit: 4; fill: rgb(78,70,218); fill-rule: nonzero; opacity: 1;"  transform=" translate(-26.077, -55.501999999999995)" d="M 26.077 59.166 c -2.024 0 -3.664 -1.641 -3.664 -3.664 l 0 0 c 0 -2.023 1.64 -3.664 3.664 -3.664 l 0 0 c 2.024 0 3.664 1.641 3.664 3.664 l 0 0 C 29.741 57.525 28.101 59.166 26.077 59.166 L 26.077 59.166 z" stroke-linecap="round" />
</g>
</g>
</g>
</svg>